<mxfile host="app.diagrams.net" modified="2022-07-14T08:20:20.109Z" agent="5.0 (Windows NT 10.0; Win64; x64) AppleWebKit/537.36 (KHTML, like Gecko) Chrome/102.0.5005.63 Safari/537.36" etag="0cAALQrIGPqy-cZJvDDv" version="20.0.4" type="github">
  <diagram id="prtHgNgQTEPvFCAcTncT" name="Page-1">
    <mxGraphModel dx="782" dy="1571" grid="1" gridSize="10" guides="1" tooltips="1" connect="1" arrows="1" fold="1" page="1" pageScale="1" pageWidth="827" pageHeight="1169" math="0" shadow="0">
      <root>
        <mxCell id="0" />
        <mxCell id="1" parent="0" />
        <mxCell id="tid1aa6X_NOi-bu087-6-1" value="测试框架" style="rounded=0;whiteSpace=wrap;html=1;" parent="1" vertex="1">
          <mxGeometry x="120" y="810" width="130" height="80" as="geometry" />
        </mxCell>
        <mxCell id="tid1aa6X_NOi-bu087-6-15" value="" style="edgeStyle=orthogonalEdgeStyle;rounded=0;orthogonalLoop=1;jettySize=auto;html=1;" parent="1" source="tid1aa6X_NOi-bu087-6-2" target="tid1aa6X_NOi-bu087-6-14" edge="1">
          <mxGeometry relative="1" as="geometry" />
        </mxCell>
        <mxCell id="tid1aa6X_NOi-bu087-6-2" value="迭代初期, 跟需求增改用例" style="rounded=0;whiteSpace=wrap;html=1;fillColor=#dae8fc;strokeColor=#6c8ebf;" parent="1" vertex="1">
          <mxGeometry x="90" y="50" width="120" height="60" as="geometry" />
        </mxCell>
        <mxCell id="tid1aa6X_NOi-bu087-6-10" value="" style="edgeStyle=orthogonalEdgeStyle;rounded=0;orthogonalLoop=1;jettySize=auto;html=1;exitX=0.5;exitY=1;exitDx=0;exitDy=0;" parent="1" source="tid1aa6X_NOi-bu087-6-24" target="tid1aa6X_NOi-bu087-6-9" edge="1">
          <mxGeometry relative="1" as="geometry">
            <mxPoint x="320" y="90" as="sourcePoint" />
          </mxGeometry>
        </mxCell>
        <mxCell id="tid1aa6X_NOi-bu087-6-11" style="edgeStyle=orthogonalEdgeStyle;rounded=0;orthogonalLoop=1;jettySize=auto;html=1;entryX=0.5;entryY=0;entryDx=0;entryDy=0;exitX=0.5;exitY=1;exitDx=0;exitDy=0;" parent="1" source="tid1aa6X_NOi-bu087-6-25" target="tid1aa6X_NOi-bu087-6-9" edge="1">
          <mxGeometry relative="1" as="geometry">
            <mxPoint x="680" y="70" as="sourcePoint" />
          </mxGeometry>
        </mxCell>
        <mxCell id="tid1aa6X_NOi-bu087-6-13" value="&#xa;&lt;span style=&quot;color: rgb(0, 0, 0); font-family: Helvetica; font-size: 12px; font-style: normal; font-variant-ligatures: normal; font-variant-caps: normal; font-weight: 400; letter-spacing: normal; orphans: 2; text-align: center; text-indent: 0px; text-transform: none; widows: 2; word-spacing: 0px; -webkit-text-stroke-width: 0px; background-color: rgb(248, 249, 250); text-decoration-thickness: initial; text-decoration-style: initial; text-decoration-color: initial; float: none; display: inline !important;&quot;&gt;脚本/数据问题&lt;/span&gt;&#xa;&#xa;" style="edgeStyle=orthogonalEdgeStyle;rounded=0;orthogonalLoop=1;jettySize=auto;html=1;entryX=1;entryY=0.5;entryDx=0;entryDy=0;strokeColor=default;" parent="1" source="tid1aa6X_NOi-bu087-6-9" target="tid1aa6X_NOi-bu087-6-14" edge="1">
          <mxGeometry relative="1" as="geometry">
            <mxPoint x="320" y="250" as="targetPoint" />
          </mxGeometry>
        </mxCell>
        <mxCell id="tid1aa6X_NOi-bu087-6-18" value="" style="edgeStyle=orthogonalEdgeStyle;rounded=0;orthogonalLoop=1;jettySize=auto;html=1;" parent="1" source="tid1aa6X_NOi-bu087-6-9" target="tid1aa6X_NOi-bu087-6-17" edge="1">
          <mxGeometry relative="1" as="geometry" />
        </mxCell>
        <mxCell id="tid1aa6X_NOi-bu087-6-28" value="bug" style="edgeLabel;html=1;align=center;verticalAlign=middle;resizable=0;points=[];" parent="tid1aa6X_NOi-bu087-6-18" vertex="1" connectable="0">
          <mxGeometry x="0.05" y="-2" relative="1" as="geometry">
            <mxPoint as="offset" />
          </mxGeometry>
        </mxCell>
        <mxCell id="tid1aa6X_NOi-bu087-6-9" value="分析问题" style="rounded=0;whiteSpace=wrap;html=1;fillColor=#dae8fc;strokeColor=#6c8ebf;" parent="1" vertex="1">
          <mxGeometry x="400" y="170" width="120" height="60" as="geometry" />
        </mxCell>
        <mxCell id="tid1aa6X_NOi-bu087-6-14" value="维护脚本,让脚本更稳定, 健壮" style="rounded=0;whiteSpace=wrap;html=1;fillColor=#dae8fc;strokeColor=#6c8ebf;" parent="1" vertex="1">
          <mxGeometry x="90" y="250" width="120" height="60" as="geometry" />
        </mxCell>
        <mxCell id="tid1aa6X_NOi-bu087-6-32" value="" style="edgeStyle=orthogonalEdgeStyle;rounded=0;orthogonalLoop=1;jettySize=auto;html=1;strokeColor=default;" parent="1" source="tid1aa6X_NOi-bu087-6-17" target="tid1aa6X_NOi-bu087-6-31" edge="1">
          <mxGeometry relative="1" as="geometry" />
        </mxCell>
        <mxCell id="tid1aa6X_NOi-bu087-6-17" value="建ticket" style="rounded=0;whiteSpace=wrap;html=1;fillColor=#d5e8d4;strokeColor=#82b366;" parent="1" vertex="1">
          <mxGeometry x="580" y="250" width="120" height="60" as="geometry" />
        </mxCell>
        <mxCell id="tid1aa6X_NOi-bu087-6-27" style="edgeStyle=orthogonalEdgeStyle;rounded=0;orthogonalLoop=1;jettySize=auto;html=1;entryX=0.5;entryY=0;entryDx=0;entryDy=0;" parent="1" source="tid1aa6X_NOi-bu087-6-21" target="tid1aa6X_NOi-bu087-6-9" edge="1">
          <mxGeometry relative="1" as="geometry" />
        </mxCell>
        <mxCell id="tid1aa6X_NOi-bu087-6-21" value="真机(平台)测试" style="ellipse;whiteSpace=wrap;html=1;aspect=fixed;fillColor=#008a00;fontColor=#ffffff;strokeColor=#005700;" parent="1" vertex="1">
          <mxGeometry x="381" y="-57.5" width="157.5" height="157.5" as="geometry" />
        </mxCell>
        <mxCell id="tid1aa6X_NOi-bu087-6-24" value="每日自动测试&lt;br&gt;QA" style="ellipse;whiteSpace=wrap;html=1;aspect=fixed;fillColor=#008a00;strokeColor=#005700;fontColor=#ffffff;" parent="1" vertex="1">
          <mxGeometry x="241.25" y="-57.5" width="157.5" height="157.5" as="geometry" />
        </mxCell>
        <mxCell id="tid1aa6X_NOi-bu087-6-25" value="UAT回归测试" style="ellipse;whiteSpace=wrap;html=1;aspect=fixed;fillColor=#008a00;fontColor=#ffffff;strokeColor=#005700;" parent="1" vertex="1">
          <mxGeometry x="510" y="-57.5" width="157.5" height="157.5" as="geometry" />
        </mxCell>
        <mxCell id="tid1aa6X_NOi-bu087-6-29" value="UI分析" style="rounded=0;whiteSpace=wrap;html=1;fillColor=#d5e8d4;strokeColor=#82b366;" parent="1" vertex="1">
          <mxGeometry x="400" y="230" width="120" height="60" as="geometry" />
        </mxCell>
        <mxCell id="tid1aa6X_NOi-bu087-6-34" style="edgeStyle=orthogonalEdgeStyle;rounded=0;orthogonalLoop=1;jettySize=auto;html=1;strokeColor=default;" parent="1" source="tid1aa6X_NOi-bu087-6-30" target="tid1aa6X_NOi-bu087-6-17" edge="1">
          <mxGeometry relative="1" as="geometry">
            <Array as="points">
              <mxPoint x="690" y="-81" />
            </Array>
          </mxGeometry>
        </mxCell>
        <mxCell id="tid1aa6X_NOi-bu087-6-35" value="关闭ticket" style="edgeLabel;html=1;align=center;verticalAlign=middle;resizable=0;points=[];" parent="tid1aa6X_NOi-bu087-6-34" vertex="1" connectable="0">
          <mxGeometry x="0.4818" y="-3" relative="1" as="geometry">
            <mxPoint as="offset" />
          </mxGeometry>
        </mxCell>
        <mxCell id="tid1aa6X_NOi-bu087-6-30" value="指定case的复测测试" style="ellipse;whiteSpace=wrap;html=1;aspect=fixed;fillColor=#fad9d5;strokeColor=#ae4132;" parent="1" vertex="1">
          <mxGeometry x="381.25" y="-160" width="157.5" height="157.5" as="geometry" />
        </mxCell>
        <mxCell id="tid1aa6X_NOi-bu087-6-33" style="edgeStyle=orthogonalEdgeStyle;rounded=0;orthogonalLoop=1;jettySize=auto;html=1;entryX=1;entryY=0.5;entryDx=0;entryDy=0;strokeColor=default;" parent="1" source="tid1aa6X_NOi-bu087-6-31" target="tid1aa6X_NOi-bu087-6-30" edge="1">
          <mxGeometry relative="1" as="geometry">
            <Array as="points">
              <mxPoint x="830" y="-81" />
            </Array>
          </mxGeometry>
        </mxCell>
        <mxCell id="tid1aa6X_NOi-bu087-6-31" value="开发修bug" style="rounded=0;whiteSpace=wrap;html=1;fillColor=#fad9d5;strokeColor=#ae4132;" parent="1" vertex="1">
          <mxGeometry x="780" y="250" width="120" height="60" as="geometry" />
        </mxCell>
        <mxCell id="6-yM7wQoxq9p90drvdcP-3" value="自动化实现" style="rounded=0;whiteSpace=wrap;html=1;strokeColor=none;fillColor=#008a00;fontColor=#ffffff;" vertex="1" parent="1">
          <mxGeometry x="950" y="170" width="110" height="30" as="geometry" />
        </mxCell>
        <mxCell id="6-yM7wQoxq9p90drvdcP-4" value="开发工作" style="rounded=0;whiteSpace=wrap;html=1;strokeColor=none;fillColor=#f8cecc;" vertex="1" parent="1">
          <mxGeometry x="950" y="250" width="110" height="30" as="geometry" />
        </mxCell>
        <mxCell id="6-yM7wQoxq9p90drvdcP-5" value="测开工作" style="rounded=0;whiteSpace=wrap;html=1;strokeColor=none;fillColor=#dae8fc;" vertex="1" parent="1">
          <mxGeometry x="950" y="130" width="110" height="30" as="geometry" />
        </mxCell>
        <mxCell id="6-yM7wQoxq9p90drvdcP-7" value="半自动测开工作" style="rounded=0;whiteSpace=wrap;html=1;strokeColor=none;fillColor=#d5e8d4;" vertex="1" parent="1">
          <mxGeometry x="950" y="210" width="110" height="30" as="geometry" />
        </mxCell>
      </root>
    </mxGraphModel>
  </diagram>
</mxfile>
